<svg width="199" height="49" viewBox="0 0 199 49" fill="none" xmlns="http://www.w3.org/2000/svg">
<path d="M12.763 24.0253C12.8615 24.0056 12.9206 23.9269 12.9009 23.8284C12.8812 23.7299 12.8024 23.6708 12.7039 23.6905C9.90707 24.1238 8.2526 22.1739 8.23291 22.1542C8.17382 22.0754 8.05564 22.0754 7.99655 22.1345C7.91777 22.1936 7.91777 22.2921 7.97686 22.3709C7.97686 22.3709 8.01625 22.4103 8.05564 22.4694C7.89807 22.6269 7.56324 22.8633 7.18902 22.7845C7.09054 22.7648 7.01176 22.8239 6.99206 22.9027C6.97236 23.0011 7.03145 23.0799 7.11023 23.0996C7.18902 23.1193 7.28749 23.1193 7.36628 23.1193C7.79959 23.1193 8.13443 22.8633 8.3117 22.686C8.39048 22.7451 8.46925 22.8239 8.54804 22.9027C8.27229 23.1587 7.60263 23.7102 6.91327 23.4739C6.83449 23.4345 6.73601 23.4935 6.69662 23.5723C6.65723 23.6708 6.71632 23.7496 6.7951 23.789C6.95267 23.8481 7.11023 23.8678 7.2678 23.8678C7.97685 23.8678 8.58743 23.336 8.82379 23.0996C8.96166 23.1981 9.09953 23.2966 9.27679 23.3754C9.04044 23.6117 8.52834 24.0647 7.95716 24.0844C7.85868 24.0844 7.7799 24.1632 7.79959 24.2617C7.79959 24.3602 7.87838 24.4193 7.97686 24.4193C8.745 24.3996 9.37528 23.789 9.59194 23.5329C9.72981 23.592 9.86767 23.6708 10.0252 23.7102C9.86767 23.9072 9.61163 24.1829 9.35558 24.242C9.2571 24.2617 9.19801 24.3602 9.21771 24.439C9.2374 24.5177 9.29649 24.5768 9.37527 24.5768C9.39497 24.5768 9.39497 24.5768 9.41467 24.5768C9.84798 24.498 10.2025 24.045 10.3601 23.8284C10.8131 23.9663 11.3055 24.045 11.8767 24.045C12.1721 24.0844 12.4675 24.0647 12.763 24.0253Z" fill="#FDF2DB"/>
<path d="M23.6154 23.4936C22.9457 23.73 22.2564 23.1785 21.9806 22.9225C22.0791 22.8437 22.1579 22.7846 22.217 22.7058C22.3942 22.8831 22.7291 23.1391 23.1624 23.1391C23.2412 23.1391 23.32 23.1391 23.4184 23.1194C23.5169 23.0997 23.576 23.0012 23.5366 22.9225C23.5169 22.824 23.4184 22.7649 23.3397 22.8043C22.9457 22.9027 22.6306 22.6467 22.473 22.4891C22.5124 22.43 22.5518 22.4104 22.5518 22.3907C22.6109 22.3119 22.6109 22.2134 22.5321 22.1543C22.4533 22.0952 22.3549 22.0952 22.2958 22.174C22.2761 22.1937 20.6216 24.1436 17.8248 23.7103C17.7263 23.6906 17.6475 23.7694 17.6278 23.8482C17.6081 23.9466 17.6869 24.0254 17.7657 24.0451C18.0808 24.0845 18.3566 24.1042 18.6323 24.1042C19.2035 24.1042 19.6959 24.0254 20.1489 23.8875C20.3065 24.1042 20.661 24.5375 21.0943 24.636C21.114 24.636 21.114 24.636 21.1337 24.636C21.2125 24.636 21.2913 24.5769 21.2913 24.4981C21.311 24.3997 21.2519 24.3209 21.1534 24.3012C20.8973 24.2421 20.6413 23.986 20.4837 23.7694C20.6413 23.7103 20.7792 23.6512 20.9171 23.5921C21.1534 23.8482 21.7837 24.4587 22.5321 24.4784C22.6306 24.4784 22.6897 24.3996 22.7094 24.3209C22.7094 24.2224 22.6306 24.1436 22.5518 24.1436C21.9806 24.1239 21.4685 23.6709 21.2322 23.4345C21.3898 23.3361 21.5473 23.2376 21.6852 23.1588C21.9215 23.3951 22.5321 23.9269 23.2412 23.9269C23.3987 23.9269 23.5563 23.9072 23.7139 23.8482C23.8124 23.8088 23.8517 23.7103 23.8124 23.6315C23.7927 23.4936 23.6942 23.4542 23.6154 23.4936Z" fill="#FDF2DB"/>
<path d="M17.9234 31.6477C17.9234 31.6477 17.3719 32.0022 16.7417 31.6477C16.072 31.2538 15.4417 31.3917 15.2448 31.4311C15.0675 31.3917 14.4175 31.2538 13.7479 31.6477C13.1373 32.0022 12.6055 31.6674 12.5661 31.6477C12.4873 31.5886 12.3889 31.6083 12.3298 31.6871C12.2707 31.7659 12.2904 31.8644 12.3692 31.9235C12.3889 31.9432 12.704 32.1401 13.1373 32.1401C13.354 32.1401 13.6297 32.081 13.8858 31.9235C14.5357 31.5492 15.1463 31.7462 15.1463 31.7462H15.166C15.166 31.7462 15.166 31.7462 15.1857 31.7462H15.2054H15.2251H15.2448H15.2645C15.2645 31.7462 15.875 31.5492 16.525 31.9235C16.8008 32.081 17.0568 32.1401 17.2735 32.1401C17.7068 32.1401 18.0219 31.9432 18.0416 31.9235C18.1204 31.8644 18.1401 31.7659 18.081 31.6871C18.1204 31.628 18.0022 31.6083 17.9234 31.6477Z" fill="#FDF2DB"/>
<path d="M17.2932 32.7114C17.2735 32.7114 16.2493 32.8887 15.3039 32.7705H15.2842H15.2645C14.3191 32.9084 13.2752 32.7114 13.2752 32.7114C13.1767 32.6917 13.0979 32.7508 13.0782 32.8493C13.0585 32.9478 13.1176 33.0266 13.2161 33.0462C13.2555 33.0462 13.8267 33.1447 14.5161 33.1447C14.7721 33.1447 15.0281 33.125 15.2842 33.1053C15.5402 33.1447 15.816 33.1447 16.0523 33.1447C16.7417 33.1447 17.3129 33.0462 17.3523 33.0462C17.4508 33.0266 17.5098 32.9478 17.4901 32.8493C17.4705 32.7508 17.372 32.6917 17.2932 32.7114Z" fill="#FDF2DB"/>
<path d="M26.0578 13.9411C25.0336 12.9169 23.8912 12.0502 22.6307 11.3609C24.0291 8.20952 23.7928 4.60514 21.961 1.69014C21.5868 1.09926 21.1732 0.54777 20.7005 0.0553701C20.6414 -0.00371788 20.5626 -0.0234091 20.4838 0.0356789C20.4248 0.0750709 20.3854 0.173551 20.4051 0.232639C21.6262 3.52187 21.0156 7.26411 18.8097 9.98216C18.5142 10.3564 18.1794 10.7109 17.8249 11.0457C17.3916 11.4397 16.9386 11.7942 16.4462 12.1093L16.3477 12.1684C14.2402 13.4683 11.7585 13.9608 9.31621 13.5274C8.74502 13.429 8.19353 13.2714 7.64205 13.0744C7.18904 12.9169 6.73603 12.7002 6.32241 12.4836C5.3967 11.9912 4.54977 11.3412 3.82102 10.573C3.76193 10.514 3.68315 10.4942 3.60437 10.5533C3.54528 10.5927 3.50588 10.6912 3.52558 10.7503C3.76193 11.4003 4.07707 12.0108 4.45129 12.6017C4.62856 12.8775 4.80582 13.1532 5.02248 13.4093C4.84522 13.5865 4.64826 13.7441 4.47099 13.9214C1.59538 16.797 0 20.6377 0 24.7148V43.0517C0 44.0956 0.413614 45.0804 1.14237 45.8092C1.87112 46.5379 2.85592 46.9516 3.89981 46.9516C6.12545 46.9516 8.23293 45.7698 9.41469 43.879C9.43438 43.8396 9.47378 43.8002 9.49348 43.7608C9.8874 44.3123 11.0298 45.7107 12.507 45.7501C12.5267 45.7501 12.5464 45.7501 12.5464 45.7501C12.9994 45.7501 13.4524 45.6122 13.8857 45.3562C14.2205 45.4744 14.575 45.5925 14.9493 45.691L14.2205 46.5773C14.1811 46.6167 14.1614 46.6955 14.2008 46.7546L15.1068 48.9015C15.1265 48.9605 15.1856 48.9999 15.2644 48.9999C15.3432 48.9999 15.4023 48.9605 15.422 48.9015L16.328 46.7546C16.3477 46.6955 16.3477 46.6364 16.3083 46.5773L15.5795 45.691C15.9538 45.5925 16.3083 45.4744 16.6431 45.3562C17.0764 45.6122 17.5294 45.7501 17.9824 45.7501C18.0021 45.7501 18.0218 45.7501 18.0218 45.7501C19.499 45.7304 20.6414 44.332 21.0353 43.7805C21.055 43.8199 21.0747 43.8593 21.1141 43.8987C22.2762 45.8092 24.4034 46.9713 26.629 46.9713C27.6729 46.9713 28.6577 46.5576 29.3864 45.8289C30.1152 45.1001 30.5288 44.1153 30.5288 43.0714V24.7345C30.5288 20.6574 28.9334 16.8364 26.0578 13.9411ZM4.19525 11.42C4.78613 11.9518 5.45579 12.4245 6.16485 12.7987C6.59816 13.035 7.07086 13.2517 7.54357 13.4093C8.09505 13.6062 8.68593 13.7638 9.27681 13.882C11.7979 14.335 14.3781 13.8229 16.5446 12.4836L16.6431 12.4245C17.1552 12.1093 17.6279 11.7351 18.0612 11.3412C18.4355 11.0063 18.7703 10.6321 19.0854 10.2382C21.1929 7.63833 21.902 4.15215 20.9959 0.961393C21.2323 1.25683 21.4686 1.59166 21.6656 1.92649C23.4579 4.80211 23.6746 8.34739 22.2368 11.42C22.0595 11.7942 21.8626 12.1684 21.6459 12.5229C21.4292 12.8775 21.1732 13.232 20.8975 13.5471C20.6217 13.882 20.3066 14.2168 19.9914 14.5122C19.6566 14.8274 19.2824 15.1228 18.9082 15.3789C18.7703 15.4773 18.6324 15.5561 18.4945 15.6546C15.7962 17.3288 12.5463 17.6439 9.57225 16.4818C9.13894 16.3046 8.70564 16.1076 8.31172 15.8713C7.9178 15.6546 7.54357 15.3986 7.18904 15.1228C6.85421 14.8668 6.53907 14.591 6.22393 14.2956C5.92849 14.0001 5.65275 13.685 5.3967 13.3699C5.16035 13.0744 4.9634 12.779 4.76644 12.4639C4.54978 12.1093 4.35281 11.7548 4.19525 11.42ZM20.3657 42.126C20.149 42.4609 19.0657 43.9972 16.6825 44.9623C16.2492 44.6668 15.8159 44.2138 15.422 43.6032C15.3826 43.5639 15.3432 43.5245 15.2841 43.5245C15.225 43.5245 15.1659 43.5442 15.1462 43.6032C14.7326 44.2138 14.319 44.6668 13.8857 44.9623C11.4631 43.9775 10.3798 42.4215 10.1828 42.126C10.5374 40.7276 10.4192 39.2504 9.848 37.9308C10.5571 36.8081 10.6358 35.5082 10.6358 34.8976C11.8767 35.843 13.3933 36.6702 15.2447 37.1233C15.2644 37.1233 15.2644 37.1233 15.2841 37.1233C15.3038 37.1233 15.3038 37.1233 15.3235 37.1233C17.1749 36.6505 18.6915 35.843 19.9324 34.8976C19.9324 35.5082 19.9914 36.8081 20.7202 37.9111C20.1096 39.2504 19.9914 40.7276 20.3657 42.126ZM10.2616 34.6022C10.2616 34.7006 10.3798 36.2566 9.67073 37.5369C9.45408 37.1232 9.19803 36.7096 8.88289 36.3551C6.71633 33.7355 6.46029 29.816 6.46029 29.7766V29.6782C6.63755 30.0327 6.83451 30.4069 7.07086 30.8008C7.76022 32.0023 8.80411 33.4007 10.2616 34.6022ZM20.8581 37.5566C20.149 36.296 20.2475 34.7794 20.2475 34.6219C21.705 33.4204 22.7489 32.022 23.4776 30.8008C23.6943 30.4266 23.8913 30.0721 24.0685 29.7176V29.7766C24.0685 29.816 23.8125 33.7355 21.6459 36.3551C21.3505 36.7293 21.0747 37.1233 20.8581 37.5566ZM24.2064 28.6343C24.167 28.654 24.1473 28.7131 24.1473 28.7525V28.7918C23.8912 29.363 23.5958 29.9736 23.2216 30.6039C21.9019 32.8295 19.4793 35.6854 15.3038 36.749C11.1282 35.6854 8.68594 32.8295 7.386 30.6039C7.01178 29.9539 6.69664 29.3236 6.4406 28.7525C6.4406 28.7131 6.42089 28.6737 6.3815 28.6343C5.73153 27.1177 5.51488 25.995 5.51488 25.9753C5.51488 25.9556 5.49518 25.9359 5.49518 25.9162V24.8132C5.49518 23.1982 5.88911 21.6225 6.63756 20.2241C7.386 20.0862 9.17834 19.8696 11.2661 20.2832C13.7084 20.7756 15.3432 23.0997 14.969 25.5617L14.3978 29.3039C14.3781 29.3827 14.4372 29.4615 14.4963 29.4812C14.5159 29.4812 14.8705 29.6191 15.3235 29.6191C15.5598 29.6191 15.8159 29.5797 16.0719 29.4615C16.1507 29.4221 16.1901 29.3236 16.1507 29.2449C16.1113 29.1661 16.0128 29.1267 15.9341 29.1661C15.4811 29.363 14.969 29.2645 14.7523 29.2055L15.3038 25.6011C15.6977 22.9618 13.9645 20.4604 11.3252 19.9286C9.41469 19.5347 7.74053 19.6923 6.85421 19.8105C7.54357 18.6287 8.46928 17.5848 9.61165 16.7576C10.8131 17.2106 12.054 17.4469 13.2948 17.4469C15.1856 17.4469 17.0567 16.9151 18.7309 15.8713C18.8491 15.7925 18.9672 15.7137 19.0854 15.6349C22.7095 17.1712 25.1518 20.8347 25.1518 24.7739V25.8965C25.1518 25.9162 25.1321 25.9359 25.1321 25.9359C25.073 26.0147 24.8367 27.1177 24.2064 28.6343ZM6.10576 14.6304C6.32242 14.8471 6.57846 15.044 6.81481 15.241C4.11646 17.6636 2.56048 21.0907 2.56048 24.7345V43.0911C2.56048 43.1108 2.56048 43.1502 2.56048 43.1699C2.56048 43.1896 2.56048 43.229 2.56048 43.2487C2.59987 44.1744 3.36801 44.9032 4.29373 44.9032C4.29373 44.9032 4.29372 44.9032 4.31342 44.9032C4.47099 44.8835 4.62856 44.8638 4.78613 44.8441C5.23913 44.7456 5.67244 44.588 6.08606 44.3714C6.75572 43.9972 7.30721 43.4654 7.70113 42.8154C8.70563 41.2003 8.54807 39.1125 7.32692 37.6353C6.57847 36.7293 5.9482 35.6264 5.4558 34.3461V32.0417C5.81032 33.5583 6.49968 35.587 7.83901 37.2217C9.23742 38.9156 9.41469 41.2988 8.27232 43.1699C7.34661 44.6668 5.67244 45.6122 3.9195 45.6122C3.30892 45.6122 2.73775 45.3759 2.30443 44.9426C1.87112 44.5093 1.63477 43.9381 1.63477 43.3275V24.7345C1.63477 21.0907 3.05288 17.6636 5.63305 15.0834C5.77092 14.9258 5.94819 14.788 6.10576 14.6304ZM7.93749 16.0288C5.33761 18.2545 3.84072 21.4452 3.84072 24.8526V43.1699C3.84072 43.3866 3.9392 43.5835 4.09677 43.7214C4.21494 43.8199 4.37251 43.879 4.53008 43.879C4.58917 43.879 4.62856 43.879 4.68765 43.8593C5.57397 43.6426 6.36181 43.0911 6.83452 42.323C7.60266 41.0625 7.48448 39.4671 6.53908 38.3247C6.14516 37.852 5.77092 37.3202 5.43609 36.749V35.2521C5.8891 36.2369 6.42089 37.1232 7.05117 37.8717C8.17384 39.2307 8.31171 41.1412 7.40569 42.6578C7.03147 43.2487 6.51938 43.7411 5.9088 44.0956C5.53458 44.3123 5.12095 44.4502 4.70734 44.5486C4.56947 44.5683 4.4316 44.588 4.29373 44.6077C3.54528 44.6077 2.9544 44.0168 2.91501 43.2881V24.7739C2.91501 21.2286 4.4316 17.8409 7.11025 15.497C7.3663 15.6546 7.64205 15.8516 7.93749 16.0288ZM6.32241 19.9877C6.32241 20.0074 6.30272 20.0074 6.30272 20.0271C5.51488 21.4846 5.10126 23.1391 5.10126 24.8329V29.816C5.10126 29.816 5.10126 29.8357 5.10126 29.8554C5.10126 29.8554 5.10126 29.8751 5.10126 29.9145V36.7884V43.3669C4.94369 43.426 4.78612 43.4851 4.60886 43.5245C4.51038 43.5441 4.3922 43.5245 4.31342 43.4654C4.23463 43.4063 4.17556 43.2881 4.17556 43.1896V24.8723C4.17556 21.524 5.65275 18.3924 8.25262 16.2455C8.54806 16.4031 8.8632 16.5606 9.17833 16.6985C7.97688 17.5651 7.01177 18.6878 6.32241 19.9877ZM5.43609 37.3596C5.69214 37.7732 5.96789 38.1474 6.26333 38.502C7.11025 39.5262 7.22843 40.964 6.51937 42.1063C6.24363 42.5396 5.86941 42.9139 5.4164 43.1699V37.3596H5.43609ZM21.0944 13.8229C25.1321 15.9894 27.6335 20.1453 27.6335 24.7345V43.2487C27.5941 43.9775 26.9835 44.5683 26.2548 44.5683C26.1169 44.5486 25.979 44.5289 25.8412 44.5093C25.4275 44.4305 25.0139 44.2729 24.6397 44.0562C24.0291 43.7214 23.517 43.229 23.1428 42.6184C22.2171 41.1215 22.355 39.1913 23.4973 37.8323C24.1276 37.0839 24.6594 36.1975 25.1124 35.2127V36.6899C24.7776 37.2611 24.4033 37.7929 24.0094 38.2656C23.064 39.408 22.9458 41.0034 23.714 42.2639C24.1867 43.032 24.9745 43.6032 25.8608 43.8002C25.9199 43.8199 25.979 43.8199 26.0184 43.8199C26.176 43.8199 26.3336 43.7608 26.4517 43.6623C26.629 43.5245 26.7078 43.3275 26.7078 43.1108V24.7936C26.7078 20.4998 24.2458 16.4818 20.4248 14.5122C20.6414 14.3153 20.8778 14.0789 21.0944 13.8229ZM23.9897 42.1063C23.3004 40.9837 23.3988 39.5262 24.2458 38.502C24.5412 38.1474 24.817 37.7535 25.073 37.3596V43.1699C24.6397 42.9139 24.2655 42.5593 23.9897 42.1063ZM20.149 14.8077C23.9306 16.6985 26.3533 20.6377 26.3533 24.8329V43.1502C26.3533 43.2684 26.2942 43.3669 26.2154 43.426C26.1366 43.4851 26.0184 43.5244 25.9199 43.4851C25.7427 43.4457 25.5851 43.3866 25.4275 43.3275V36.749V34.3855V29.8751C25.4275 29.8554 25.4275 29.8357 25.4275 29.816C25.4275 29.7963 25.4275 29.7963 25.4275 29.7766V24.7936C25.4275 20.7953 23.0049 17.0727 19.3612 15.4183C19.6369 15.241 19.893 15.0243 20.149 14.8077ZM25.0927 34.3658C24.6003 35.646 23.97 36.749 23.2216 37.655C22.0004 39.1322 21.8429 41.2003 22.8474 42.8351C23.2413 43.4851 23.8125 44.0169 24.4624 44.3911C24.8761 44.6274 25.3094 44.785 25.7624 44.8638C25.9199 44.9032 26.0775 44.9229 26.2351 44.9229H26.2548C27.1805 44.9229 27.9486 44.1941 27.988 43.2684C27.988 43.229 27.988 43.2093 27.988 43.1699C27.988 43.1502 27.988 43.1108 27.988 43.0911V24.7345C27.988 20.0468 25.4472 15.7728 21.3308 13.5471C21.5277 13.2911 21.705 13.035 21.8823 12.779C22.9852 13.3896 24.0291 14.1577 24.9351 15.0834C27.5153 17.6636 28.9334 21.0907 28.9334 24.7345V43.3275C28.9334 43.9381 28.6971 44.5093 28.2638 44.9426C27.8305 45.3759 27.2593 45.6122 26.6487 45.6122C24.876 45.6122 23.2216 44.6865 22.2959 43.1699C21.1535 41.2988 21.3111 38.9156 22.7292 37.2217C24.0882 35.587 24.7776 33.5583 25.1124 32.0417V34.3658H25.0927ZM3.89981 46.6167C2.9544 46.6167 2.04838 46.2425 1.37872 45.5728C0.709056 44.9032 0.334828 44.0168 0.334828 43.0517V24.7148C0.334828 20.7362 1.89081 16.9742 4.70734 14.1577C4.86491 14.0001 5.04218 13.8229 5.21944 13.6653C5.4164 13.9017 5.63306 14.138 5.84972 14.3547C5.69215 14.4925 5.53457 14.6501 5.37701 14.8077C2.73774 17.4469 1.28024 20.9528 1.28024 24.6951V43.3275C1.28024 44.0365 1.55598 44.6865 2.04838 45.1789C2.54078 45.6713 3.21045 45.9471 3.89981 45.9471C5.79062 45.9471 7.56326 44.9426 8.54806 43.3472C9.76921 41.3579 9.59195 38.7974 8.09505 37.0051C5.81032 34.2476 5.47548 30.3478 5.43609 29.8751V27.1965C5.57396 27.6495 5.79063 28.2207 6.04668 28.8509L6.08606 29.7963C6.08606 29.8357 6.32241 33.8537 8.58745 36.5718C10.2616 38.6005 10.4783 41.4564 9.09956 43.7017C8.01628 45.5138 6.02697 46.6167 3.89981 46.6167ZM12.566 45.3956C12.5464 45.3956 12.5463 45.3956 12.5267 45.3956C11.0691 45.3759 9.92679 43.7805 9.69044 43.426C9.82831 43.1305 9.96617 42.8548 10.0647 42.5397C10.4783 43.1108 11.5222 44.3123 13.5115 45.1789C13.1766 45.3168 12.8812 45.3956 12.566 45.3956ZM15.2644 48.3894L14.5553 46.7152L15.2644 45.8683L15.9735 46.7152L15.2644 48.3894ZM15.2644 45.4153C14.8902 45.3168 14.5553 45.2183 14.2402 45.1001C14.5947 44.8244 14.9296 44.4502 15.2644 43.9775C15.5992 44.4502 15.9341 44.8047 16.2886 45.1001C15.9735 45.2183 15.6386 45.3168 15.2644 45.4153ZM18.0218 45.3956C17.687 45.3956 17.3719 45.3168 17.0567 45.1789C19.0263 44.332 20.0899 43.1305 20.5035 42.5593C20.602 42.8548 20.7202 43.1502 20.8778 43.4457C20.602 43.8002 19.4597 45.3759 18.0218 45.3956ZM30.1743 43.0714C30.1743 44.0169 29.8 44.9229 29.1304 45.5925C28.4607 46.2622 27.5744 46.6364 26.6093 46.6364C24.5018 46.6364 22.4928 45.5137 21.3899 43.7214C21.0944 43.229 20.8581 42.7169 20.7202 42.1654C20.7202 42.126 20.7202 42.0866 20.7005 42.0669C20.2081 40.1958 20.6217 38.1474 21.9216 36.5915C24.1867 33.8734 24.423 29.8554 24.423 29.816L24.4624 28.91C24.7382 28.2797 24.9351 27.7086 25.073 27.2556V29.8948C25.0336 30.3675 24.6988 34.287 22.414 37.0248C20.9172 38.8368 20.7399 41.3776 21.961 43.3669C22.9458 44.9623 24.7185 45.9668 26.6093 45.9668C27.3184 45.9668 27.9683 45.691 28.4607 45.1986C28.9531 44.7062 29.2289 44.0365 29.2289 43.3472V24.7542C29.2289 21.0119 27.7714 17.506 25.1321 14.8668C24.2064 13.9411 23.1625 13.1532 22.0201 12.5229C22.1777 12.2669 22.3353 11.9912 22.4731 11.6957C23.6746 12.3654 24.7973 13.2123 25.8018 14.1971C28.6183 17.0136 30.1743 20.7559 30.1743 24.7542V43.0714Z" fill="#FDF2DB"/>
<path d="M16.249 3.34459C16.8005 3.34459 17.2535 3.93548 17.2535 4.66423C17.2535 4.76271 17.3323 4.84148 17.4308 4.84148C17.5293 4.84148 17.6081 4.76271 17.6081 4.66423C17.6081 3.93548 18.0611 3.34459 18.6126 3.34459C18.711 3.34459 18.7898 3.2658 18.7898 3.16732C18.7898 3.06884 18.711 2.99007 18.6126 2.99007C18.0611 2.99007 17.6081 2.39919 17.6081 1.67043C17.6081 1.57195 17.5293 1.49316 17.4308 1.49316C17.3323 1.49316 17.2535 1.57195 17.2535 1.67043C17.2535 2.39919 16.8005 2.99007 16.249 2.99007C16.1506 2.99007 16.0718 3.06884 16.0718 3.16732C16.0718 3.2658 16.1506 3.34459 16.249 3.34459ZM17.4111 2.49767C17.549 2.79311 17.7459 3.02945 17.9823 3.16732C17.7459 3.32489 17.5293 3.56125 17.4111 3.83699C17.2732 3.54155 17.0763 3.3052 16.8399 3.16732C17.0763 3.02945 17.2732 2.79311 17.4111 2.49767Z" fill="#FDF2DB"/>
<path d="M12.96 10.3959C13.3933 10.3959 13.7478 10.8686 13.7478 11.4398C13.7478 11.5382 13.8266 11.617 13.9251 11.617C14.0236 11.617 14.1023 11.5382 14.1023 11.4398C14.1023 10.8686 14.4569 10.3959 14.8902 10.3959C14.9887 10.3959 15.0675 10.3171 15.0675 10.2186C15.0675 10.1201 14.9887 10.0413 14.8902 10.0413C14.4569 10.0413 14.1023 9.56864 14.1023 8.99746C14.1023 8.89898 14.0236 8.82019 13.9251 8.82019C13.8266 8.82019 13.7478 8.89898 13.7478 8.99746C13.7478 9.56864 13.3933 10.0413 12.96 10.0413C12.8615 10.0413 12.7827 10.1201 12.7827 10.2186C12.7827 10.3171 12.8615 10.3959 12.96 10.3959ZM13.9251 9.72621C14.0236 9.92317 14.1811 10.1004 14.3387 10.2186C14.1614 10.3368 14.0236 10.4944 13.9251 10.711C13.8266 10.5141 13.669 10.3368 13.5115 10.2186C13.669 10.1004 13.8069 9.94287 13.9251 9.72621Z" fill="#FDF2DB"/>
<path d="M6.46023 5.72781C7.22837 5.72781 7.83895 6.53536 7.83895 7.52016C7.83895 7.61864 7.91774 7.69741 8.01622 7.69741C8.1147 7.69741 8.19347 7.61864 8.19347 7.52016C8.19347 6.53536 8.80405 5.72781 9.57219 5.72781C9.67067 5.72781 9.74946 5.64904 9.74946 5.55056C9.74946 5.45208 9.67067 5.37329 9.57219 5.37329C8.80405 5.37329 8.19347 4.56576 8.19347 3.58096C8.19347 3.48248 8.1147 3.40369 8.01622 3.40369C7.91774 3.40369 7.83895 3.48248 7.83895 3.58096C7.83895 4.56576 7.22837 5.37329 6.46023 5.37329C6.36175 5.37329 6.28296 5.45208 6.28296 5.55056C6.28296 5.64904 6.38144 5.72781 6.46023 5.72781ZM8.01622 4.52636C8.19348 4.99907 8.50862 5.37329 8.90254 5.57025C8.50862 5.76721 8.21318 6.14143 8.01622 6.61413C7.83895 6.14143 7.52382 5.76721 7.1299 5.57025C7.52382 5.35359 7.83895 4.97937 8.01622 4.52636Z" fill="#FDF2DB"/>
<path d="M43.5281 13.5077C47.7037 13.5077 50.6581 13.8819 50.6581 17.4863C50.6581 19.7316 48.2748 21.2482 45.1629 21.2482C44.6311 21.2482 44.0796 21.2088 43.5084 21.1104V27.1373H41.7161V13.5274H43.5281V13.5077ZM43.5281 20.618C43.9023 20.6967 44.2962 20.7361 44.6508 20.7361C46.837 20.7361 48.8657 19.515 48.8657 17.0333C48.8657 13.7834 46.4037 13.9607 43.5084 13.9607V20.618H43.5281Z" fill="#FDF2DB"/>
<path d="M58.3789 13.5078V22.7058C58.3789 26.133 60.2697 26.9208 61.7666 26.9208C63.5984 26.9208 65.824 26.133 65.824 22.3907V13.5078H66.277V22.3119C66.277 26.2314 64.0711 27.3935 61.353 27.3935C59.4031 27.3935 56.5669 26.8223 56.5669 22.3513V13.5078H58.3789Z" fill="#FDF2DB"/>
<path d="M72.619 13.5078H74.6083C78.7838 13.5078 81.5807 13.6851 81.5807 17.2894C81.5807 18.9636 80.5762 19.9681 78.6263 20.4802L82.6442 27.1374H80.5171L76.696 20.8347C76.0461 20.8938 75.1598 20.9135 74.3916 20.9135V27.1374H72.5796V13.5078H72.619ZM74.431 20.4408C77.7596 20.4408 79.7883 19.9287 79.7883 17.0334C79.7883 13.7836 77.3263 13.9608 74.431 13.9608V20.4408Z" fill="#FDF2DB"/>
<path d="M89.3606 13.9411V19.7712H93.9695V20.2242H89.3606V26.6648H90.8772C92.7877 26.6648 94.2846 26.133 95.5255 24.9512V27.1178H87.5486V13.5078H95.5058V15.6744C94.2649 14.4926 92.768 13.9608 90.8575 13.9608H89.3606V13.9411Z" fill="#FDF2DB"/>
<path d="M111.204 13.5078H114.769C118.018 13.5078 119.988 14.3548 119.988 16.6198C119.988 18.0773 119.24 18.9833 116.935 19.4757C119.752 19.8893 120.796 21.465 120.796 23.0998C120.796 25.9557 117.684 27.1178 115.359 27.1178H111.223V13.5078H111.204ZM114.769 19.5348C117.644 19.5348 118.176 18.1955 118.176 16.8561C118.176 14.4335 116.108 13.9608 114.375 13.9608H113.016V19.5348H114.769ZM113.016 19.9681V26.6648H115.359C117.428 26.6648 118.984 25.3451 118.984 23.2573C118.984 21.5635 117.861 19.9681 115.438 19.9681H113.016Z" fill="#FDF2DB"/>
<path d="M128.3 13.9411V19.7712H132.908V20.2242H128.3V26.6648H129.816C131.727 26.6648 133.224 26.133 134.464 24.9512V27.1178H126.488V13.5078H134.445V15.6744C133.204 14.4926 131.707 13.9608 129.796 13.9608H128.3V13.9411Z" fill="#FDF2DB"/>
<path d="M145.455 13.5078H146.361L151.915 27.0981H149.729L148.35 23.6906H141.89L140.551 27.0981H140.137L145.455 13.5078ZM142.047 23.2967H148.193L145.061 15.5956L142.047 23.2967Z" fill="#FDF2DB"/>
<path d="M158.573 13.5078V22.7058C158.573 26.133 160.463 26.9208 161.96 26.9208C163.792 26.9208 166.018 26.133 166.018 22.3907V13.5078H166.471V22.3119C166.471 26.2314 164.265 27.3935 161.547 27.3935C159.597 27.3935 156.76 26.8223 156.76 22.3513V13.5078H158.573Z" fill="#FDF2DB"/>
<path d="M183.015 13.5078V15.6744C181.833 14.5517 180.395 14.0002 178.603 13.9608V27.1374H176.791V13.9608C174.999 14.0002 173.561 14.5517 172.379 15.6744V13.5078H183.015Z" fill="#FDF2DB"/>
<path d="M188.274 13.5078H190.362L194.478 20.756L198.398 13.5078H198.91L194.636 21.4847V27.1178H192.824V21.5241L188.274 13.5078Z" fill="#FDF2DB"/>
<path d="M83.4321 39.1717C83.767 39.3686 84.2397 39.5459 84.7518 39.5459C85.5002 39.5459 85.9335 39.152 85.9335 38.5808C85.9335 38.049 85.6381 37.7536 84.8699 37.4581C83.9442 37.1233 83.3731 36.6506 83.3731 35.843C83.3731 34.9567 84.1018 34.3068 85.2048 34.3068C85.7957 34.3068 86.2093 34.4446 86.4653 34.5825L86.2684 35.1734C86.0911 35.0749 85.6972 34.8976 85.1851 34.8976C84.4169 34.8976 84.1215 35.3703 84.1215 35.7446C84.1215 36.2764 84.476 36.5324 85.2442 36.8475C86.2093 37.2218 86.7017 37.6748 86.7017 38.5217C86.7017 39.408 86.0517 40.1565 84.7124 40.1565C84.1609 40.1565 83.57 39.9989 83.2549 39.8019L83.4321 39.1717Z" fill="#FDF2DB"/>
<path d="M91.9214 34.3658H92.6501V37.1036H92.6698C92.8274 36.8869 92.9653 36.69 93.1228 36.493L94.8561 34.3658H95.7621L93.7137 36.7885L95.9394 40.058H95.0727L93.2016 37.2612L92.6698 37.8914V40.058H91.9411V34.3658H91.9214Z" fill="#FDF2DB"/>
<path d="M101.434 34.3658V40.058H100.706V34.3658H101.434Z" fill="#FDF2DB"/>
<path d="M106.93 40.058V34.3658H107.737L109.569 37.2415C109.983 37.9111 110.317 38.502 110.593 39.0929H110.613C110.554 38.3247 110.534 37.6354 110.534 36.7491V34.3658H111.223V40.058H110.475L108.663 37.1824C108.269 36.5521 107.895 35.9021 107.599 35.2916H107.58C107.619 36.0006 107.639 36.69 107.639 37.6354V40.058H106.93Z" fill="#FDF2DB"/>
<path d="M126.685 39.8808C126.409 40.0187 125.877 40.1565 125.188 40.1565C123.592 40.1565 122.371 39.152 122.371 37.2809C122.371 35.5083 123.573 34.2871 125.345 34.2871C126.054 34.2871 126.507 34.4447 126.704 34.5432L126.527 35.134C126.251 34.9962 125.857 34.8977 125.385 34.8977C124.045 34.8977 123.159 35.7446 123.159 37.2415C123.159 38.6399 123.966 39.5263 125.345 39.5263C125.798 39.5263 126.251 39.4278 126.547 39.2899L126.685 39.8808Z" fill="#FDF2DB"/>
<path d="M132.771 38.2657L132.18 40.058H131.412L133.342 34.3658H134.228L136.178 40.058H135.39L134.78 38.2657H132.771ZM134.642 37.6945L134.09 36.0597C133.972 35.6855 133.874 35.3506 133.795 35.0158H133.775C133.696 35.3506 133.598 35.7052 133.48 36.04L132.928 37.6945H134.642Z" fill="#FDF2DB"/>
<path d="M141.24 34.4447C141.614 34.3659 142.146 34.3265 142.658 34.3265C143.446 34.3265 143.958 34.4644 144.313 34.7992C144.608 35.0553 144.766 35.4492 144.766 35.8825C144.766 36.631 144.293 37.1234 143.702 37.34V37.3597C144.135 37.5173 144.411 37.9112 144.529 38.5021C144.706 39.2899 144.844 39.8414 144.963 40.0581H144.194C144.096 39.9005 143.978 39.4081 143.82 38.6991C143.643 37.9112 143.347 37.6158 142.678 37.5961H141.988V40.0581H141.26V34.4447H141.24ZM141.969 37.0446H142.717C143.505 37.0446 143.997 36.6113 143.997 35.9613C143.997 35.2326 143.466 34.8977 142.697 34.8977C142.343 34.8977 142.087 34.9371 141.969 34.9568V37.0446Z" fill="#FDF2DB"/>
<path d="M152.939 37.399H150.733V39.4474H153.195V40.058H150.005V34.3658H153.077V34.9764H150.733V36.7688H152.939V37.399Z" fill="#FDF2DB"/>
</svg>
